<svg width="32" height="32" viewBox="0 0 32 32" fill="none" xmlns="http://www.w3.org/2000/svg">
<g clip-path="url(#clip0)">
<path d="M28.172 20.1495C28.172 25.7179 22.8398 30.5836 15.7942 30.5836C8.74864 30.5836 3.41641 25.7179 3.41641 20.1495C3.41641 14.5812 8.74864 9.71551 15.7942 9.71551C22.8398 9.71551 28.172 14.5812 28.172 20.1495Z" fill="#EEEEEE" stroke="#444444" stroke-width="2.83281"/>
<ellipse cx="15.7942" cy="20.1495" rx="13.7942" ry="11.8504" fill="#75B3D6"/>
<path d="M21.1849 20.6079C20.9591 21.5436 20.4514 21.9136 19.9516 21.8454C19.273 21.7527 19.1938 21.1126 19.3752 20.3609C19.601 19.4253 20.1087 19.0553 20.6085 19.1235C21.4002 19.2315 21.3663 19.8563 21.1849 20.6079Z" fill="#444444"/>
<path d="M12.7737 19.8725C13.2977 20.7607 13.1765 21.3977 12.7333 21.6853C12.1315 22.076 11.5897 21.6278 11.1688 20.9142C10.6449 20.026 10.766 19.389 11.2092 19.1013C11.9114 18.6456 12.3529 19.1589 12.7737 19.8725Z" fill="#444444"/>
<path d="M10.5076 24.5698C12.3455 26.4039 16.4837 27.7206 20.9667 24.5698" stroke="#444444" stroke-width="1.51758" stroke-linecap="round"/>
<path d="M14.4165 23.4032C15.1063 21.8113 16.4715 22.1883 17.1753 23.4032" stroke="#444444" stroke-width="1.51758" stroke-linecap="round"/>
<ellipse rx="4.24191" ry="5.57907" transform="matrix(0.945435 0.32581 -0.35376 0.935336 17.5324 5.60037)" fill="#75B3D6"/>
</g>
<defs>
<clipPath id="clip0">
<rect width="32" height="32" fill="white"/>
</clipPath>
</defs>
</svg>
