<svg width="32" height="32" viewBox="0 0 32 32" fill="none" xmlns="http://www.w3.org/2000/svg">
<g clip-path="url(#clip0)">
<path d="M28.172 20.1495C28.172 25.7179 22.8398 30.5836 15.7942 30.5836C8.74864 30.5836 3.41641 25.7179 3.41641 20.1495C3.41641 14.5812 8.74864 9.71551 15.7942 9.71551C22.8398 9.71551 28.172 14.5812 28.172 20.1495Z" fill="#EEEEEE" stroke="#444444" stroke-width="2.83281"/>
<path d="M28.3384 20.1495C28.3384 25.8326 22.907 30.75 15.7942 30.75C8.68134 30.75 3.25 25.8326 3.25 20.1495C3.25 14.4665 8.68134 9.5491 15.7942 9.5491C22.907 9.5491 28.3384 14.4665 28.3384 20.1495Z" fill="#EEEEEE" stroke="#444444" stroke-width="2.5"/>
<path d="M19.6641 20.0461C19.4937 20.7521 19.1106 21.0313 18.7335 20.9798C18.2214 20.9099 18.1617 20.4269 18.2986 19.8597C18.4689 19.1537 18.8521 18.8745 19.2292 18.926C19.8266 19.0075 19.801 19.479 19.6641 20.0461Z" fill="#444444"/>
<path d="M13.089 19.8001C13.4614 20.4314 13.3753 20.8841 13.0603 21.0885C12.6326 21.3662 12.2475 21.0476 11.9484 20.5405C11.576 19.9092 11.6621 19.4565 11.9771 19.252C12.4761 18.9281 12.7899 19.2929 13.089 19.8001Z" fill="#444444"/>
<path d="M10.5076 24.5698C12.3455 26.4039 16.4837 27.7206 20.9667 24.5698" stroke="#444444" stroke-width="1.51758" stroke-linecap="round"/>
<path d="M14.4165 23.4032C15.1063 21.8113 16.4715 22.1883 17.1753 23.4032" stroke="#444444" stroke-width="1.51758" stroke-linecap="round"/>
<line x1="1.25" y1="-1.25" x2="4.84276" y2="-1.25" transform="matrix(0.574781 -0.818307 0.842273 0.539052 12.0059 15.4388)" stroke="#444444" stroke-width="2.5" stroke-linecap="square"/>
<line x1="1.25" y1="-1.25" x2="5.16188" y2="-1.25" transform="matrix(-0.0449548 -0.998989 0.99916 -0.0409678 18.251 15.3206)" stroke="#444444" stroke-width="2.5" stroke-linecap="square"/>
<line x1="1.25" y1="-1.25" x2="4.36654" y2="-1.25" transform="matrix(-0.373623 -0.927581 0.938773 -0.344535 21.8975 14.2836)" stroke="#444444" stroke-width="2.5" stroke-linecap="square"/>
<ellipse rx="4.24191" ry="5.57907" transform="matrix(0.945435 0.32581 -0.35376 0.935336 17.5324 5.60037)" fill="#444444"/>
</g>
<defs>
<clipPath id="clip0">
<rect width="32" height="32" fill="white"/>
</clipPath>
</defs>
</svg>
